<?xml version="1.0" encoding="UTF-8" standalone="no"?>
<!-- Created with Inkscape (http://www.inkscape.org/) -->

<svg
   xmlns:dc="http://purl.org/dc/elements/1.1/"
   xmlns:cc="http://creativecommons.org/ns#"
   xmlns:rdf="http://www.w3.org/1999/02/22-rdf-syntax-ns#"
   xmlns:svg="http://www.w3.org/2000/svg"
   xmlns="http://www.w3.org/2000/svg"
   xmlns:xlink="http://www.w3.org/1999/xlink"
   xmlns:sodipodi="http://sodipodi.sourceforge.net/DTD/sodipodi-0.dtd"
   xmlns:inkscape="http://www.inkscape.org/namespaces/inkscape"
   width="3174.0713"
   height="1956.787"
   id="svg2"
   version="1.1"
   inkscape:version="0.91 r13725"
   sodipodi:docname="detail-commit.svg"
   inkscape:export-filename="/home/tom/workspace/tclavier/tp-git-blog/latex/detail-commit.png"
   inkscape:export-xdpi="29.040001"
   inkscape:export-ydpi="29.040001">
  <defs
     id="defs4">
    <linearGradient
       id="linearGradient2224">
      <stop
         id="stop2226"
         offset="0"
         style="stop-color:#7c7c7c;stop-opacity:1;" />
      <stop
         id="stop2228"
         offset="1"
         style="stop-color:#b8b8b8;stop-opacity:1;" />
    </linearGradient>
    <linearGradient
       gradientTransform="translate(6.161836,4.033411)"
       gradientUnits="userSpaceOnUse"
       y2="42.0625"
       x2="39.0625"
       y1="39.15625"
       x1="36.8125"
       id="linearGradient2222"
       xlink:href="#linearGradient2216"
       inkscape:collect="always" />
    <linearGradient
       id="linearGradient2216"
       inkscape:collect="always">
      <stop
         id="stop2218"
         offset="0"
         style="stop-color:#000000;stop-opacity:1;" />
      <stop
         id="stop2220"
         offset="1"
         style="stop-color:#000000;stop-opacity:0;" />
    </linearGradient>
    <linearGradient
       gradientTransform="matrix(0.993566,0,0,1,6.219859,4.033411)"
       gradientUnits="userSpaceOnUse"
       y2="42.007351"
       x2="30.811172"
       y1="26.696676"
       x1="26.076092"
       id="linearGradient2265"
       xlink:href="#linearGradient2259"
       inkscape:collect="always" />
    <linearGradient
       id="linearGradient2259"
       inkscape:collect="always">
      <stop
         id="stop2261"
         offset="0"
         style="stop-color:#ffffff;stop-opacity:1;" />
      <stop
         id="stop2263"
         offset="1"
         style="stop-color:#ffffff;stop-opacity:0;" />
    </linearGradient>
    <linearGradient
       gradientTransform="matrix(1.060837,0,0,0.987595,4.641161,4.108291)"
       gradientUnits="userSpaceOnUse"
       y2="39.498238"
       x2="35.785294"
       y1="18.99214"
       x1="22.308331"
       id="linearGradient15224"
       xlink:href="#linearGradient15218"
       inkscape:collect="always" />
    <linearGradient
       id="linearGradient15218">
      <stop
         id="stop15220"
         offset="0"
         style="stop-color:#f8f8f7;stop-opacity:1;" />
      <stop
         style="stop-color:#e8e8e8;stop-opacity:1;"
         offset="0.59928656"
         id="stop2269" />
      <stop
         id="stop15222"
         offset="1"
         style="stop-color:#e2e2de;stop-opacity:1;" />
    </linearGradient>
    <radialGradient
       gradientUnits="userSpaceOnUse"
       gradientTransform="matrix(1,0,0,0.651376,0,10.75754)"
       r="15.571428"
       fy="30.857143"
       fx="22.571428"
       cy="30.857143"
       cx="22.571428"
       id="radialGradient3564"
       xlink:href="#linearGradient3558"
       inkscape:collect="always" />
    <linearGradient
       id="linearGradient3558"
       inkscape:collect="always">
      <stop
         id="stop3560"
         offset="0"
         style="stop-color:#000000;stop-opacity:1;" />
      <stop
         id="stop3562"
         offset="1"
         style="stop-color:#000000;stop-opacity:0;" />
    </linearGradient>
    <linearGradient
       id="linearGradient2591">
      <stop
         id="stop2593"
         offset="0"
         style="stop-color:#9db029;stop-opacity:1;" />
      <stop
         id="stop2595"
         offset="1.0000000"
         style="stop-color:#869623;stop-opacity:1.0000000;" />
    </linearGradient>
    <linearGradient
       id="linearGradient5157">
      <stop
         id="stop5159"
         offset="0"
         style="stop-color:#8ae234;stop-opacity:1;" />
      <stop
         id="stop5161"
         offset="1"
         style="stop-color:#555753;stop-opacity:0;" />
    </linearGradient>
    <linearGradient
       id="linearGradient5048">
      <stop
         id="stop5050"
         offset="0"
         style="stop-color:black;stop-opacity:0;" />
      <stop
         style="stop-color:black;stop-opacity:1;"
         offset="0.5"
         id="stop5056" />
      <stop
         id="stop5052"
         offset="1"
         style="stop-color:black;stop-opacity:0;" />
    </linearGradient>
    <inkscape:perspective
       id="perspective56"
       inkscape:persp3d-origin="24 : 16 : 1"
       inkscape:vp_z="48 : 24 : 1"
       inkscape:vp_y="0 : 1000 : 0"
       inkscape:vp_x="0 : 24 : 1"
       sodipodi:type="inkscape:persp3d" />
    <linearGradient
       inkscape:collect="always"
       xlink:href="#linearGradient5157-2"
       id="linearGradient8751-1"
       gradientUnits="userSpaceOnUse"
       gradientTransform="matrix(1.188,0,0,1.188,334.32728,300.39133)"
       x1="10.729691"
       y1="26.422195"
       x2="2.3941064"
       y2="26.422195" />
    <linearGradient
       id="linearGradient5157-2">
      <stop
         id="stop5159-1"
         offset="0"
         style="stop-color:#555753" />
      <stop
         id="stop5161-2"
         offset="1"
         style="stop-color:#555753;stop-opacity:0;" />
    </linearGradient>
    <linearGradient
       inkscape:collect="always"
       xlink:href="#linearGradient5157-3"
       id="linearGradient8751-2"
       gradientUnits="userSpaceOnUse"
       gradientTransform="matrix(1.7723126,0,0,1.7723126,344.46025,285.88124)"
       x1="10.729691"
       y1="26.422195"
       x2="-64.779335"
       y2="26.847343" />
    <linearGradient
       id="linearGradient5157-3">
      <stop
         id="stop5159-8"
         offset="0"
         style="stop-color:#8ae234;stop-opacity:1;" />
      <stop
         id="stop5161-8"
         offset="1"
         style="stop-color:#555753;stop-opacity:0;" />
    </linearGradient>
    <linearGradient
       inkscape:collect="always"
       xlink:href="#linearGradient5157-4"
       id="linearGradient8751-16"
       gradientUnits="userSpaceOnUse"
       gradientTransform="matrix(1.7723126,0,0,1.7723126,344.46025,285.88124)"
       x1="10.729691"
       y1="26.422195"
       x2="-64.779335"
       y2="26.847343" />
    <linearGradient
       id="linearGradient5157-4">
      <stop
         id="stop5159-4"
         offset="0"
         style="stop-color:#8ae234;stop-opacity:1;" />
      <stop
         id="stop5161-1"
         offset="1"
         style="stop-color:#555753;stop-opacity:0;" />
    </linearGradient>
    <linearGradient
       inkscape:collect="always"
       xlink:href="#linearGradient5157-7"
       id="linearGradient8751-9"
       gradientUnits="userSpaceOnUse"
       gradientTransform="matrix(1.7723126,0,0,1.7723126,344.46025,285.88124)"
       x1="10.729691"
       y1="26.422195"
       x2="-64.779335"
       y2="26.847343" />
    <linearGradient
       id="linearGradient5157-7">
      <stop
         id="stop5159-2"
         offset="0"
         style="stop-color:#8ae234;stop-opacity:1;" />
      <stop
         id="stop5161-6"
         offset="1"
         style="stop-color:#555753;stop-opacity:0;" />
    </linearGradient>
    <linearGradient
       inkscape:collect="always"
       xlink:href="#linearGradient5157-0"
       id="linearGradient8751-0"
       gradientUnits="userSpaceOnUse"
       gradientTransform="matrix(1.7723126,0,0,1.7723126,344.46025,285.88124)"
       x1="10.729691"
       y1="26.422195"
       x2="-64.779335"
       y2="26.847343" />
    <linearGradient
       id="linearGradient5157-0">
      <stop
         id="stop5159-5"
         offset="0"
         style="stop-color:#8ae234;stop-opacity:1;" />
      <stop
         id="stop5161-3"
         offset="1"
         style="stop-color:#555753;stop-opacity:0;" />
    </linearGradient>
    <linearGradient
       y2="25.638269"
       x2="-183.26859"
       y1="24.004047"
       x1="-27.960678"
       gradientTransform="matrix(1.7723126,0,0,1.7723126,560.40613,382.45867)"
       gradientUnits="userSpaceOnUse"
       id="linearGradient9584-5-5"
       xlink:href="#linearGradient5157-0-6"
       inkscape:collect="always" />
    <linearGradient
       id="linearGradient5157-0-6">
      <stop
         id="stop5159-5-8"
         offset="0"
         style="stop-color:#8ae234;stop-opacity:1;" />
      <stop
         id="stop5161-3-6"
         offset="1"
         style="stop-color:#555753;stop-opacity:0;" />
    </linearGradient>
    <linearGradient
       inkscape:collect="always"
       xlink:href="#linearGradient5157"
       id="linearGradient9699"
       gradientUnits="userSpaceOnUse"
       gradientTransform="matrix(9.678158,0,0,9.678158,50.879153,-215.2747)"
       x1="10.729691"
       y1="26.422195"
       x2="-64.779335"
       y2="26.847343" />
    <linearGradient
       inkscape:collect="always"
       xlink:href="#linearGradient5157-3"
       id="linearGradient9734"
       gradientUnits="userSpaceOnUse"
       gradientTransform="matrix(7.9636009,0,0,9.678158,1230.3859,251.29662)"
       x1="21.134172"
       y1="25.241333"
       x2="-79.48912"
       y2="25.07605" />
    <linearGradient
       inkscape:collect="always"
       xlink:href="#linearGradient5157-4-8"
       id="linearGradient9751-8"
       gradientUnits="userSpaceOnUse"
       gradientTransform="matrix(-1.7723126,0,0,1.7723126,458.56236,339.1264)"
       x1="10.729691"
       y1="26.422195"
       x2="-64.779335"
       y2="26.847343" />
    <linearGradient
       id="linearGradient5157-4-8">
      <stop
         id="stop5159-4-4"
         offset="0"
         style="stop-color:#729fcf;stop-opacity:1;" />
      <stop
         id="stop5161-1-6"
         offset="1"
         style="stop-color:#555753;stop-opacity:0;" />
    </linearGradient>
    <linearGradient
       y2="26.847343"
       x2="-64.779335"
       y1="26.422195"
       x1="10.729691"
       gradientTransform="matrix(-1.7723126,0,0,1.7723126,463.77638,438.33482)"
       gradientUnits="userSpaceOnUse"
       id="linearGradient9768-6"
       xlink:href="#linearGradient5157-4-8-2"
       inkscape:collect="always" />
    <linearGradient
       id="linearGradient5157-4-8-2">
      <stop
         id="stop5159-4-4-4"
         offset="0"
         style="stop-color:#729fcf;stop-opacity:1;" />
      <stop
         id="stop5161-1-6-7"
         offset="1"
         style="stop-color:#555753;stop-opacity:0;" />
    </linearGradient>
    <linearGradient
       inkscape:collect="always"
       xlink:href="#linearGradient5157-0-6-9"
       id="linearGradient9845-4"
       gradientUnits="userSpaceOnUse"
       gradientTransform="matrix(-1.7723126,0,0,1.7723126,253.20494,384.74893)"
       x1="-27.960678"
       y1="24.004047"
       x2="-183.26859"
       y2="25.638269" />
    <linearGradient
       id="linearGradient5157-0-6-9">
      <stop
         id="stop5159-5-8-6"
         offset="0"
         style="stop-color:#8ae234;stop-opacity:1;" />
      <stop
         id="stop5161-3-6-8"
         offset="1"
         style="stop-color:#555753;stop-opacity:0;" />
    </linearGradient>
    <linearGradient
       inkscape:collect="always"
       xlink:href="#linearGradient5157"
       id="linearGradient9699-9"
       gradientUnits="userSpaceOnUse"
       gradientTransform="matrix(9.678158,0,0,9.678158,-402.3907,-88.81329)"
       x1="92.799622"
       y1="24.060471"
       x2="-64.779335"
       y2="26.847343" />
    <linearGradient
       inkscape:collect="always"
       xlink:href="#linearGradient5157"
       id="linearGradient9699-9-2"
       gradientUnits="userSpaceOnUse"
       gradientTransform="matrix(9.678158,0,0,9.678158,-230.96214,218.32957)"
       x1="70.068024"
       y1="24.650902"
       x2="-64.779335"
       y2="26.847343" />
    <linearGradient
       inkscape:collect="always"
       xlink:href="#linearGradient5157"
       id="linearGradient9699-9-9"
       gradientUnits="userSpaceOnUse"
       gradientTransform="matrix(9.678158,0,0,9.678158,206.18073,518.32957)"
       x1="43.793839"
       y1="24.060471"
       x2="-64.779335"
       y2="26.847343" />
    <linearGradient
       inkscape:collect="always"
       xlink:href="#linearGradient5157"
       id="linearGradient9699-9-92"
       gradientUnits="userSpaceOnUse"
       gradientTransform="matrix(9.678158,0,0,9.678158,-385.24785,772.04386)"
       x1="86.304878"
       y1="24.060471"
       x2="-64.779335"
       y2="26.847343" />
  </defs>
  <sodipodi:namedview
     id="base"
     pagecolor="#ffffff"
     bordercolor="#666666"
     borderopacity="1.0"
     inkscape:pageopacity="0.0"
     inkscape:pageshadow="2"
     inkscape:zoom="0.35"
     inkscape:cx="1910.4375"
     inkscape:cy="818.43835"
     inkscape:document-units="px"
     inkscape:current-layer="layer1"
     showgrid="false"
     inkscape:window-width="1920"
     inkscape:window-height="1024"
     inkscape:window-x="0"
     inkscape:window-y="19"
     inkscape:window-maximized="1"
     fit-margin-top="0"
     fit-margin-left="0"
     fit-margin-right="0"
     fit-margin-bottom="0">
    <inkscape:grid
       type="xygrid"
       id="grid4253"
       originx="-0.00012541809"
       originy="45.524055" />
  </sodipodi:namedview>
  <metadata
     id="metadata7">
    <rdf:RDF>
      <cc:Work
         rdf:about="">
        <dc:format>image/svg+xml</dc:format>
        <dc:type
           rdf:resource="http://purl.org/dc/dcmitype/StillImage" />
        <dc:title></dc:title>
      </cc:Work>
    </rdf:RDF>
  </metadata>
  <g
     inkscape:label="Calque 1"
     inkscape:groupmode="layer"
     id="layer1"
     transform="translate(1205.1428,568.69318)">
    <rect
       style="fill:#eeeeec;fill-opacity:1;stroke:#2e3436;stroke-width:11.04800034;stroke-linecap:round;stroke-linejoin:round;stroke-miterlimit:4;stroke-dasharray:none;stroke-dashoffset:0;stroke-opacity:1"
       id="rect2985"
       width="1034.4758"
       height="1945.7389"
       x="-1199.6188"
       y="-563.16907"
       rx="6.3010535"
       ry="13.144972" />
    <rect
       style="color:#000000;clip-rule:nonzero;display:inline;overflow:visible;visibility:visible;opacity:1;isolation:auto;mix-blend-mode:normal;color-interpolation:sRGB;color-interpolation-filters:linearRGB;solid-color:#000000;solid-opacity:1;fill:none;fill-opacity:1;fill-rule:nonzero;stroke:#a40000;stroke-width:10.94483757;stroke-linecap:butt;stroke-linejoin:round;stroke-miterlimit:4;stroke-dasharray:none;stroke-dashoffset:0;stroke-opacity:1;color-rendering:auto;image-rendering:auto;shape-rendering:auto;text-rendering:auto;enable-background:accumulate"
       id="rect4255"
       width="2085.7695"
       height="1945.8422"
       x="-122.31334"
       y="-563.22076"
       rx="1.1323444"
       ry="2.3691783" />
    <g
       id="g9726"
       transform="matrix(5.4607511,0,0,5.4607511,-1761.3594,-1726.0354)">
      <rect
         ry="2.3481476"
         rx="1.1540323"
         y="239.63831"
         x="308.78839"
         height="314.97501"
         width="175.8"
         id="rect2987"
         style="fill:#d3d7cf;fill-opacity:1;stroke:#2e3436;stroke-width:1.99836731;stroke-linecap:round;stroke-linejoin:round;stroke-miterlimit:4;stroke-dasharray:none;stroke-dashoffset:0;stroke-opacity:1" />
      <rect
         ry="2.4071729"
         rx="1.1538781"
         y="239.63831"
         x="501.06964"
         height="314.97501"
         width="172.13751"
         id="rect2989"
         style="fill:#babdb6;fill-opacity:1;stroke:#2e3436;stroke-width:2.02319264;stroke-linecap:round;stroke-linejoin:round;stroke-miterlimit:4;stroke-dasharray:none;stroke-dashoffset:0;stroke-opacity:1" />
    </g>
    <text
       xml:space="preserve"
       style="font-style:normal;font-variant:normal;font-weight:normal;font-stretch:normal;font-size:109.21501923px;line-height:100%;font-family:'Liberation Serif';-inkscape-font-specification:'Liberation Serif';text-align:start;letter-spacing:0px;word-spacing:0px;writing-mode:lr-tb;text-anchor:start;fill:#000000;fill-opacity:1;stroke:none"
       x="-1134.0198"
       y="-379.15268"
       id="text2991"
       sodipodi:linespacing="100%"><tspan
         sodipodi:role="line"
         id="tspan2993"
         x="-1134.0198"
         y="-379.15268">Répertoire de travail</tspan></text>
    <text
       xml:space="preserve"
       style="font-style:normal;font-variant:normal;font-weight:normal;font-stretch:normal;font-size:109.21501923px;line-height:100%;font-family:'Liberation Serif';-inkscape-font-specification:'Liberation Serif';text-align:start;letter-spacing:0px;word-spacing:0px;writing-mode:lr-tb;text-anchor:start;fill:#000000;fill-opacity:1;stroke:none"
       x="273.09106"
       y="-290.14053"
       id="text2995"
       sodipodi:linespacing="100%"><tspan
         sodipodi:role="line"
         id="tspan2997"
         x="273.09106"
         y="-290.14053">Index</tspan></text>
    <text
       xml:space="preserve"
       style="font-style:normal;font-variant:normal;font-weight:normal;font-stretch:normal;font-size:109.21501923px;line-height:100%;font-family:'Liberation Serif';-inkscape-font-specification:'Liberation Serif';text-align:start;letter-spacing:0px;word-spacing:0px;writing-mode:lr-tb;text-anchor:start;fill:#000000;fill-opacity:1;stroke:none"
       x="1239.9823"
       y="-301.23267"
       id="text2999"
       sodipodi:linespacing="100%"><tspan
         sodipodi:role="line"
         id="tspan3001"
         x="1239.9823"
         y="-301.23267">Historique</tspan></text>
    <path
       inkscape:connector-curvature="0"
       sodipodi:nodetypes="ccccccccc"
       id="path8643"
       d="m -598.24213,-31.417276 0.25556,96.675827 934.84247,0 0,47.642269 111.92606,-96.185343 -111.94643,-94.92298 0,46.81977 -934.8221,-0.03276 z"
       style="color:#000000;display:inline;overflow:visible;visibility:visible;fill:url(#linearGradient9699);fill-opacity:1;fill-rule:evenodd;stroke:none;stroke-width:1.00000036;marker:none" />
    <path
       inkscape:connector-curvature="0"
       sodipodi:nodetypes="ccccccccc"
       id="path8643-0"
       d="m 696.26127,435.15405 0.21029,96.67582 637.57334,0 0,47.64227 92.0976,-96.18534 -92.1143,-94.92298 0,46.81977 -637.55664,-0.0328 z"
       style="color:#000000;display:inline;overflow:visible;visibility:visible;fill:url(#linearGradient9734);fill-opacity:1;fill-rule:evenodd;stroke:none;stroke-width:1.00000036;marker:none" />
    <text
       xml:space="preserve"
       style="font-style:normal;font-variant:normal;font-weight:normal;font-stretch:normal;font-size:98.62846375px;line-height:100%;font-family:'Linux Libertine O';-inkscape-font-specification:'Linux Libertine O';text-align:start;letter-spacing:0px;word-spacing:0px;writing-mode:lr-tb;text-anchor:start;fill:#000000;fill-opacity:1;stroke:none;stroke-width:1px;stroke-linecap:butt;stroke-linejoin:miter;stroke-opacity:1"
       x="-59.944355"
       y="-470.10175"
       id="text4257"
       sodipodi:linespacing="100%"><tspan
         sodipodi:role="line"
         x="-59.944355"
         y="-470.10175"
         id="tspan4261">.git</tspan></text>
    <path
       id="path4383"
       d="m -934.42854,132.1523 0,20.45455 q 0,4.26136 -2.98294,7.24432 -2.98296,2.98295 -7.24432,2.98295 l -44.31818,0 0,44.31818 q 0,4.26136 -2.98296,7.24432 -2.98296,2.98295 -7.24432,2.98295 l -20.45454,0 q -4.2614,0 -7.2443,-2.98295 -2.983,-2.98296 -2.983,-7.24432 l 0,-44.31818 -44.3181,0 q -4.2614,0 -7.2444,-2.98295 -2.9829,-2.98296 -2.9829,-7.24432 l 0,-20.45455 q 0,-4.26136 2.9829,-7.24432 2.983,-2.98295 7.2444,-2.98295 l 44.3181,0 0,-44.318191 q 0,-4.261365 2.983,-7.24432 2.9829,-2.982954 7.2443,-2.982954 l 20.45454,0 q 4.26136,0 7.24432,2.982954 2.98296,2.982955 2.98296,7.24432 l 0,44.318191 44.31818,0 q 4.26136,0 7.24432,2.98295 2.98294,2.98296 2.98294,7.24432 z"
       inkscape:connector-curvature="0"
       style="fill:#4e9a06" />
    <flowRoot
       xml:space="preserve"
       id="flowRoot4392"
       style="fill:black;stroke:none;stroke-opacity:1;stroke-width:1px;stroke-linejoin:miter;stroke-linecap:butt;fill-opacity:1;font-family:Linux Libertine O;font-style:normal;font-weight:normal;font-size:15px;text-anchor:start;text-align:start;writing-mode:lr;line-height:100%;-inkscape-font-specification:Linux Libertine O;font-stretch:normal;font-variant:normal;letter-spacing:0px;word-spacing:0px"><flowRegion
         id="flowRegion4394"><rect
           id="rect4396"
           width="1300"
           height="317.14285"
           x="2045.7144"
           y="1165.3584" /></flowRegion><flowPara
         id="flowPara4398"></flowPara></flowRoot>    <path
       id="path4383-6"
       d="m -655.85708,789.2951 0,20.45455 q 0,4.26136 -2.98293,7.24432 -2.98293,2.98296 -7.2443,2.98296 l -44.31818,0 0,44.31818 q 0,4.26136 -2.98302,7.24432 -2.98293,2.98296 -7.2443,2.98296 l -20.45454,0 q -4.26137,0 -7.2443,-2.98296 -2.98294,-2.98296 -2.98294,-7.24432 l 0,-44.31818 -44.31817,0 q -4.26137,0 -7.24439,-2.98296 -2.98293,-2.98296 -2.98293,-7.24432 l 0,-20.45455 q 0,-4.26136 2.98293,-7.24431 2.98302,-2.98297 7.24439,-2.98297 l 44.31817,0 0,-44.31819 q 0,-4.26137 2.98294,-7.24432 2.98293,-2.98296 7.2443,-2.98296 l 20.45454,0 q 4.26137,0 7.2443,2.98296 2.98302,2.98295 2.98302,7.24432 l 0,44.31819 44.31818,0 q 4.26137,0 7.2443,2.98297 2.98293,2.98295 2.98293,7.24431 z"
       inkscape:connector-curvature="0"
       style="fill:#4e9a06" />
    <path
       id="path4383-7"
       d="m -921.57136,997.2951 0,20.4545 q 0,4.2614 -2.98293,7.2444 -2.98293,2.9829 -7.2443,2.9829 l -44.31818,0 0,44.3182 q 0,4.2614 -2.98302,7.2443 -2.98293,2.983 -7.2443,2.983 l -20.45451,0 q -4.2614,0 -7.2443,-2.983 -2.983,-2.9829 -2.983,-7.2443 l 0,-44.3182 -44.3181,0 q -4.2614,0 -7.2444,-2.9829 -2.983,-2.983 -2.983,-7.2444 l 0,-20.4545 q 0,-4.2614 2.983,-7.2443 2.983,-2.983 7.2444,-2.983 l 44.3181,0 0,-44.3181 q 0,-4.2614 2.983,-7.2444 2.9829,-2.983 7.2443,-2.983 l 20.45451,0 q 4.26137,0 7.2443,2.983 2.98302,2.983 2.98302,7.2444 l 0,44.3181 44.31818,0 q 4.26137,0 7.2443,2.983 2.98293,2.9829 2.98293,7.2443 z"
       inkscape:connector-curvature="0"
       style="fill:#4e9a06" />
    <path
       id="path4383-5"
       d="m -932.99995,646.43796 0,20.45455 q 0,4.26136 -2.98293,7.24432 -2.98293,2.98296 -7.2443,2.98296 l -44.31817,0 0,44.31818 q 0,4.26136 -2.98302,7.24432 -2.98293,2.98295 -7.2443,2.98295 l -20.45453,0 q -4.2614,0 -7.2443,-2.98295 -2.983,-2.98296 -2.983,-7.24432 l 0,-44.31818 -44.3181,0 q -4.2614,0 -7.2444,-2.98296 -2.9829,-2.98296 -2.9829,-7.24432 l 0,-20.45455 q 0,-4.26135 2.9829,-7.24431 2.983,-2.98297 7.2444,-2.98297 l 44.3181,0 0,-44.31819 q 0,-4.26137 2.983,-7.24432 2.9829,-2.98295 7.2443,-2.98295 l 20.45453,0 q 4.26137,0 7.2443,2.98295 2.98302,2.98295 2.98302,7.24432 l 0,44.31819 44.31817,0 q 4.26137,0 7.2443,2.98297 2.98293,2.98296 2.98293,7.24431 z"
       inkscape:connector-curvature="0"
       style="fill:#4e9a06" />
    <path
       id="path4383-35"
       d="m -358.71422,526.43795 0,20.45455 q 0,4.26136 -2.98293,7.24432 -2.98293,2.98296 -7.2443,2.98296 l -44.31818,0 0,44.31818 q 0,4.26136 -2.98302,7.24432 -2.98293,2.98296 -7.2443,2.98296 l -20.45454,0 q -4.26137,0 -7.2443,-2.98296 -2.98294,-2.98296 -2.98294,-7.24432 l 0,-44.31818 -44.31817,0 q -4.26137,0 -7.24439,-2.98296 -2.98293,-2.98296 -2.98293,-7.24432 l 0,-20.45455 q 0,-4.26136 2.98293,-7.24431 2.98302,-2.98297 7.24439,-2.98297 l 44.31817,0 0,-44.31819 q 0,-4.26137 2.98294,-7.24432 2.98293,-2.98296 7.2443,-2.98296 l 20.45454,0 q 4.26137,0 7.2443,2.98296 2.98302,2.98295 2.98302,7.24432 l 0,44.31819 44.31818,0 q 4.26137,0 7.2443,2.98297 2.98293,2.98295 2.98293,7.24431 z"
       inkscape:connector-curvature="0"
       style="fill:#4e9a06" />
    <path
       id="path4510"
       d="m -482.9999,10.723688 0,20.45454 q 0,4.26137 -2.98295,7.24432 -2.98296,2.98295 -7.24432,2.98295 l -129.54546,0 q -4.26136,0 -7.24432,-2.98295 -2.98295,-2.98295 -2.98295,-7.24432 l 0,-20.45454 q 0,-4.2613697 2.98295,-7.2443197 2.98296,-2.98295999 7.24432,-2.98295999 l 129.54546,0 q 4.26136,0 7.24432,2.98295999 2.98295,2.98295 2.98295,7.2443197 z"
       inkscape:connector-curvature="0"
       style="fill:#a40000" />
    <path
       id="path4510-9"
       d="m -307.28565,243.58082 0,20.45454 q 0,4.26137 -2.983,7.24432 -2.9829,2.98295 -7.2443,2.98295 l -129.5454,0 q -4.2614,0 -7.2444,-2.98295 -2.9829,-2.98295 -2.9829,-7.24432 l 0,-20.45454 q 0,-4.26137 2.9829,-7.24432 2.983,-2.98296 7.2444,-2.98296 l 129.5454,0 q 4.2614,0 7.2443,2.98296 2.983,2.98295 2.983,7.24432 z"
       inkscape:connector-curvature="0"
       style="fill:#a40000" />
    <path
       id="path4510-1"
       d="m -730.14279,443.58081 0,20.45454 q 0,4.26137 -2.983,7.24432 -2.9829,2.98295 -7.2443,2.98295 l -129.5454,0 q -4.2614,0 -7.2444,-2.98295 -2.9829,-2.98295 -2.9829,-7.24432 l 0,-20.45454 q 0,-4.26137 2.9829,-7.24432 2.983,-2.98296 7.2444,-2.98296 l 129.5454,0 q 4.2614,0 7.2443,2.98296 2.983,2.98295 2.983,7.24432 z"
       inkscape:connector-curvature="0"
       style="fill:#a40000" />
    <path
       id="path4510-2"
       d="m -415.85708,980.72368 0,20.45452 q 0,4.2614 -2.983,7.2443 -2.9829,2.983 -7.2443,2.983 l -129.5454,0 q -4.2614,0 -7.2444,-2.983 -2.9829,-2.9829 -2.9829,-7.2443 l 0,-20.45452 q 0,-4.26137 2.9829,-7.24432 2.983,-2.98296 7.2444,-2.98296 l 129.5454,0 q 4.2614,0 7.2443,2.98296 2.983,2.98295 2.983,7.24432 z"
       inkscape:connector-curvature="0"
       style="fill:#a40000" />
    <path
       id="path4510-7"
       d="m -650.14279,1180.7237 0,20.4545 q 0,4.2614 -2.983,7.2443 -2.9829,2.983 -7.2443,2.983 l -129.5454,0 q -4.2614,0 -7.2444,-2.983 -2.9829,-2.9829 -2.9829,-7.2443 l 0,-20.4545 q 0,-4.2614 2.9829,-7.2443 2.983,-2.983 7.2444,-2.983 l 129.5454,0 q 4.2614,0 7.2443,2.983 2.983,2.9829 2.983,7.2443 z"
       inkscape:connector-curvature="0"
       style="fill:#a40000" />
    <path
       id="path4510-0"
       d="m -315.85707,752.15225 0,20.45454 q 0,4.26137 -2.983,7.24432 -2.9829,2.98295 -7.2443,2.98295 l -129.5454,0 q -4.2614,0 -7.2444,-2.98295 -2.9829,-2.98295 -2.9829,-7.24432 l 0,-20.45454 q 0,-4.26137 2.9829,-7.24432 2.983,-2.98296 7.2444,-2.98296 l 129.5454,0 q 4.2614,0 7.2443,2.98296 2.983,2.98295 2.983,7.24432 z"
       inkscape:connector-curvature="0"
       style="fill:#a40000" />
    <path
       inkscape:connector-curvature="0"
       sodipodi:nodetypes="ccccccccc"
       id="path8643-6"
       d="m -1051.512,95.044146 0.2556,96.675824 1534.84245,0 0,47.64227 111.92606,-96.18534 -111.94643,-94.922984 0,46.81977 -1534.82208,-0.0328 z"
       style="color:#000000;display:inline;overflow:visible;visibility:visible;fill:url(#linearGradient9699-9);fill-opacity:1;fill-rule:evenodd;stroke:none;stroke-width:1.00000036;marker:none" />
    <path
       inkscape:connector-curvature="0"
       sodipodi:nodetypes="ccccccccc"
       id="path8643-6-7"
       d="m -880.08341,402.18701 0.2556,96.67582 1254.8424,0 0,47.64227 111.9261,-96.18534 -111.9464,-94.92298 0,46.81977 -1254.8221,-0.0328 z"
       style="color:#000000;display:inline;overflow:visible;visibility:visible;fill:url(#linearGradient9699-9-2);fill-opacity:1;fill-rule:evenodd;stroke:none;stroke-width:1.00000036;marker:none" />
    <path
       inkscape:connector-curvature="0"
       sodipodi:nodetypes="ccccccccc"
       id="path8643-6-75"
       d="m -442.94054,702.18701 0.2556,96.67587 994.8424,0 0,47.6423 111.9261,-96.18544 -111.9464,-94.92296 0,46.81977 -994.8221,-0.0328 z"
       style="color:#000000;display:inline;overflow:visible;visibility:visible;fill:url(#linearGradient9699-9-9);fill-opacity:1;fill-rule:evenodd;stroke:none;stroke-width:1.00000036;marker:none" />
    <path
       inkscape:connector-curvature="0"
       sodipodi:nodetypes="ccccccccc"
       id="path8643-6-73"
       d="m -1034.3691,955.9013 0.2556,96.6759 1374.84238,0 0,47.6422 111.9261,-96.1853 -111.9464,-94.923 0,46.8198 -1374.82208,-0.033 z"
       style="color:#000000;display:inline;overflow:visible;visibility:visible;fill:url(#linearGradient9699-9-92);fill-opacity:1;fill-rule:evenodd;stroke:none;stroke-width:1.00000036;marker:none" />
    <path
       style="color:#000000;clip-rule:nonzero;display:inline;overflow:visible;visibility:visible;opacity:1;isolation:auto;mix-blend-mode:normal;color-interpolation:sRGB;color-interpolation-filters:linearRGB;solid-color:#000000;solid-opacity:1;fill:none;fill-opacity:1;fill-rule:nonzero;stroke:#204a87;stroke-width:11;stroke-linecap:butt;stroke-linejoin:round;stroke-miterlimit:4;stroke-dasharray:none;stroke-dashoffset:0;stroke-opacity:1;color-rendering:auto;image-rendering:auto;shape-rendering:auto;text-rendering:auto;enable-background:accumulate"
       id="path4637"
       sodipodi:type="arc"
       sodipodi:cx="400.57144"
       sodipodi:cy="505.23669"
       sodipodi:rx="311.42859"
       sodipodi:ry="654.28571"
       sodipodi:start="2.8156799"
       sodipodi:end="2.8134882"
       d="M 105.5368,714.72172 A 311.42859,654.28571 0 0 1 300.69858,-114.4918 311.42859,654.28571 0 0 1 695.49664,295.07254 311.42859,654.28571 0 0 1 500.7675,1124.7349 311.42859,654.28571 0 0 1 105.75605,716.07973"
       sodipodi:open="true" />
    <path
       id="path4510-6"
       d="m 429.85722,3.5808083 0,20.4545407 q 0,4.26137 -2.983,7.244319 -2.9829,2.98295 -7.2443,2.98295 l -129.5454,0 q -4.2614,0 -7.2444,-2.98295 -2.9829,-2.982949 -2.9829,-7.244319 l 0,-20.4545407 q 0,-4.26137002 2.9829,-7.24432 2.983,-2.98296 7.2444,-2.98296 l 129.5454,0 q 4.2614,0 7.2443,2.98296 2.983,2.98294998 2.983,7.24432 z"
       inkscape:connector-curvature="0"
       style="fill:#a40000" />
    <path
       id="path4383-5-1"
       d="m 581.28575,132.15223 0,20.45455 q 0,4.26136 -2.9829,7.24432 -2.9829,2.98296 -7.2443,2.98296 l -44.3182,0 0,44.31818 q 0,4.26136 -2.983,7.24432 -2.9829,2.98295 -7.2443,2.98295 l -20.4545,0 q -4.2614,0 -7.2443,-2.98295 -2.983,-2.98296 -2.983,-7.24432 l 0,-44.31818 -44.3181,0 q -4.2614,0 -7.2444,-2.98296 -2.9829,-2.98296 -2.9829,-7.24432 l 0,-20.45455 q 0,-4.26135 2.9829,-7.24431 2.983,-2.98297 7.2444,-2.98297 l 44.3181,0 0,-44.31819 q 0,-4.26137 2.983,-7.24432 2.9829,-2.98295 7.2443,-2.98295 l 20.4545,0 q 4.2614,0 7.2443,2.98295 2.983,2.98295 2.983,7.24432 l 0,44.31819 44.3182,0 q 4.2614,0 7.2443,2.98297 2.9829,2.98296 2.9829,7.24431 z"
       inkscape:connector-curvature="0"
       style="fill:#4e9a06" />
    <path
       id="path4510-9-2"
       d="m 432.71437,440.72367 0,20.45454 q 0,4.26137 -2.983,7.24432 -2.9829,2.98295 -7.2443,2.98295 l -129.5454,0 q -4.2614,0 -7.2444,-2.98295 -2.9829,-2.98295 -2.9829,-7.24432 l 0,-20.45454 q 0,-4.26137 2.9829,-7.24432 2.983,-2.98296 7.2444,-2.98296 l 129.5454,0 q 4.2614,0 7.2443,2.98296 2.983,2.98295 2.983,7.24432 z"
       inkscape:connector-curvature="0"
       style="fill:#a40000" />
    <path
       id="path4510-9-9"
       d="m 609.85722,737.86654 0,20.45454 q 0,4.26137 -2.983,7.24432 -2.9829,2.98295 -7.2443,2.98295 l -129.5454,0 q -4.2614,0 -7.2444,-2.98295 -2.9829,-2.98295 -2.9829,-7.24432 l 0,-20.45454 q 0,-4.26137 2.9829,-7.24432 2.983,-2.98296 7.2444,-2.98296 l 129.5454,0 q 4.2614,0 7.2443,2.98296 2.983,2.98295 2.983,7.24432 z"
       inkscape:connector-curvature="0"
       style="fill:#a40000" />
    <path
       id="path4383-6-3"
       d="m 427.00008,992.15225 0,20.45455 q 0,4.2613 -2.9829,7.2443 -2.983,2.9829 -7.2443,2.9829 l -44.3182,0 0,44.3182 q 0,4.2614 -2.983,7.2443 -2.983,2.983 -7.2443,2.983 l -20.4546,0 q -4.2613,0 -7.2443,-2.983 -2.9829,-2.9829 -2.9829,-7.2443 l 0,-44.3182 -44.3182,0 q -4.2614,0 -7.2444,-2.9829 -2.9829,-2.983 -2.9829,-7.2443 l 0,-20.45455 q 0,-4.26136 2.9829,-7.24431 2.983,-2.98297 7.2444,-2.98297 l 44.3182,0 0,-44.31819 q 0,-4.26137 2.9829,-7.24432 2.983,-2.98296 7.2443,-2.98296 l 20.4546,0 q 4.2613,0 7.2443,2.98296 2.983,2.98295 2.983,7.24432 l 0,44.31819 44.3182,0 q 4.2613,0 7.2443,2.98297 2.9829,2.98295 2.9829,7.24431 z"
       inkscape:connector-curvature="0"
       style="fill:#4e9a06" />
  </g>
</svg>
